<?xml version="1.0" encoding="utf-8"?>
<!-- Generator: Adobe Illustrator 23.0.0, SVG Export Plug-In . SVG Version: 6.00 Build 0)  -->
<svg version="1.1" id="图层_1" xmlns="http://www.w3.org/2000/svg" xmlns:xlink="http://www.w3.org/1999/xlink" x="0px" y="0px"
	 viewBox="0 0 200 200" style="enable-background:new 0 0 200 200;" xml:space="preserve">
<style type="text/css">
	.st0{fill:#DE2910;}
	.st1{fill:#FFDE00;}
</style>
<rect class="st0" width="200" height="200"/>
<path class="st1" d="M67.9,60.9l9.4,26.7h28.3L82,104.9l9.4,26.7l-23.6-16.5l-22.8,16.5l8.6-26.7L30.9,87.6h28.3L67.9,60.9z
	 M131.5,35l1.6,10.2l10.2,2.4l-9.4,3.9l0.8,11l-7.1-7.9l-9.4,4.7l4.7-9.4l-7.1-7.9l10.2,2.4L131.5,35z M154.3,68.8l5.5,8.6l10.2-1.6
	l-7.1,7.9l5.5,8.6l-9.4-3.9l-7.1,7.9l0.8-11l-9.4-3.9l10.2-2.4L154.3,68.8z M151.1,106.5l3.1,10.2h10.2l-8.6,6.3l3.1,10.2l-7.9-6.3
	l-8.6,6.3l3.1-10.2l-7.9-7.1l10.2,0.8L151.1,106.5z M130.7,136.3l-1.6,10.2l10.2,3.9l-10.2,3.1l-0.8,11l-5.5-9.4l-10.2,3.1l7.1-8.6
	l-5.5-8.6l9.4,3.1L130.7,136.3z"/>
</svg>
